<svg width="79" height="50" viewBox="0 0 79 50" fill="none" xmlns="http://www.w3.org/2000/svg">
<path fill-rule="evenodd" clip-rule="evenodd" d="M59.1878 0C60.8025 4.7173 62.3775 9.45371 63.9129 14.2092C68.9421 14.223 73.9712 14.2642 79 14.3328C74.9355 17.2853 70.8736 20.2369 66.8143 23.1878C68.3784 27.8779 69.9258 32.5731 71.4565 37.2735C71.4288 37.3147 71.4012 37.3559 71.3736 37.397C67.3034 34.4893 63.2553 31.5513 59.2293 28.5832C55.941 30.972 52.6529 33.3608 49.3646 35.7496C49.3375 35.9726 49.3651 36.1923 49.4475 36.4086C50.2414 38.7816 51.0289 41.1568 51.8101 43.5338C51.7825 43.575 51.7548 43.6161 51.7272 43.6573C47.6864 40.7093 43.6383 37.7713 39.5829 34.8435C36.1759 37.2708 32.791 39.7282 29.4281 42.2158C30.3312 44.8082 31.1602 47.4029 31.915 50C27.8763 47.0302 23.8144 44.0923 19.7293 41.1862C15.6885 44.1342 11.6404 47.0722 7.585 50C9.05764 45.2389 10.5912 40.4887 12.1857 35.7496C8.12697 32.7989 4.06506 29.8472 0 26.8946C5.00147 26.8812 10.0029 26.8812 15.0042 26.8946C16.6081 22.1409 18.1969 17.3769 19.7707 12.603C20.6559 15.2278 21.4986 17.8637 22.2991 20.5107C26.4995 20.5381 30.6996 20.5107 34.8993 20.4283C36.4529 15.7008 38.0141 10.9782 39.5829 6.2603C40.4785 8.88896 41.3489 11.5249 42.1941 14.168C46.3113 14.2778 50.4284 14.2778 54.5456 14.168C56.0765 9.4397 57.6239 4.71705 59.1878 0ZM43.106 17.1334C43.1389 17.049 43.1941 17.0353 43.2718 17.0923C44.7959 18.2498 46.3433 19.3756 47.914 20.4695C46.6708 20.5107 45.4274 20.5245 44.1836 20.5107C43.8719 19.3619 43.5127 18.2362 43.106 17.1334ZM23.2109 23.1466C24.9441 24.3186 26.6573 25.5268 28.3505 26.771C28.4351 26.8124 28.449 26.8672 28.3919 26.9357C27.0945 26.9597 25.782 26.9323 24.4544 26.8534C24.0016 25.6304 23.5871 24.3948 23.2109 23.1466ZM50.2351 27.1829C49.6389 29.1388 49.0171 31.0883 48.3699 33.0313C47.95 31.8428 47.5494 30.6484 47.1679 29.4481C48.1519 28.6498 49.1743 27.8947 50.2351 27.1829ZM30.5058 33.3608C30.5784 33.35 30.6337 33.3774 30.6716 33.4432C30.0126 35.49 29.3218 37.5218 28.5992 39.5387C28.1077 38.2706 27.707 36.9801 27.3972 35.6672C28.4485 34.9096 29.4847 34.1409 30.5058 33.3608Z" fill="#FEFFFE"/>
</svg>
