<svg width="216" height="40" viewBox="0 0 216 40" fill="none" xmlns="http://www.w3.org/2000/svg">
<g clip-path="url(#clip0_10_495)">
<path d="M18.5899 0C20.4314 0 22.1313 0.142751 23.6895 0.565351C25.2477 0.848026 26.5226 1.41338 27.6558 2.12007C28.789 2.82675 29.639 3.81612 30.2056 5.08957C30.7722 6.3602 31.0555 7.91633 31.0555 9.61238C31.0555 11.5897 30.6305 13.2872 29.639 14.5592C28.789 15.8298 27.3725 16.9605 25.6726 17.8086C28.0808 18.5152 29.9223 19.7859 31.0555 21.4833C32.1887 23.1794 32.897 25.2995 32.897 27.7022C32.897 29.6795 32.472 31.377 31.7638 32.7904C31.0555 34.2037 29.9223 35.4758 28.6474 36.3238C27.3725 37.1732 25.8143 37.8799 24.1144 38.3025C22.4146 38.7251 20.7147 39.0092 19.0149 39.0092H0.0332031V0H18.5899ZM17.4567 15.8298C19.0149 15.8298 20.2898 15.4058 21.2814 14.6991C22.2729 13.9924 22.6979 12.7204 22.6979 11.1657C22.6979 10.3177 22.5562 9.46963 22.2729 8.90428C21.9896 8.33893 21.5647 7.91491 20.998 7.4909C20.4314 7.20823 19.8648 6.92555 19.1565 6.78421C18.4483 6.64287 17.74 6.64287 16.8901 6.64287H8.67412V15.8298H17.4567ZM17.8817 32.5077C18.7316 32.5077 19.5815 32.3663 20.2898 32.2264C20.998 32.0837 21.7063 31.801 22.2729 31.377C22.8396 30.953 23.2645 30.529 23.6895 29.8223C23.9728 29.1156 24.2561 28.2661 24.2561 27.2782C24.2561 25.2995 23.6895 23.8861 22.5562 22.8953C21.423 22.0473 19.8648 21.6247 18.0233 21.6247H8.67412V32.5077H17.8817ZM45.2209 32.3663C46.3542 33.497 48.054 34.0624 50.3205 34.0624C51.8787 34.0624 53.2952 33.6384 54.4285 32.9317C55.5617 32.0823 56.27 31.2356 56.5533 30.3862H63.4944C62.3611 33.7783 60.6613 36.1825 58.3948 37.7358C56.1283 39.1491 53.4369 39.9986 50.1788 39.9986C47.9124 39.9986 45.9292 39.5732 44.0877 38.8665C42.2462 38.1598 40.8297 37.1718 39.5548 35.7584C38.2799 34.4864 37.2883 32.9317 36.7217 31.0929C36.0134 29.2555 35.7301 27.2782 35.7301 25.0154C35.7301 22.8953 36.0134 20.918 36.7217 19.0792C37.43 17.2418 38.4215 15.6885 39.6964 14.2751C40.9713 13.0031 42.5295 11.8724 44.2294 11.1657C46.0709 10.459 47.9124 10.035 50.1788 10.035C52.587 10.035 54.7118 10.459 56.5533 11.4484C58.3948 12.4377 59.8113 13.5684 60.9446 15.2645C62.0778 16.8192 62.9277 18.6552 63.4944 20.6353C63.7777 22.614 63.9193 24.5928 63.7777 26.8542H43.2378C43.2378 29.1156 44.0877 31.2356 45.2209 32.3663ZM54.1452 17.5259C53.1536 16.5365 51.5954 15.9712 49.7539 15.9712C48.479 15.9712 47.4874 16.2524 46.6375 16.6779C45.7876 17.1019 45.2209 17.6658 44.6543 18.2326C44.0877 18.7993 43.8044 19.5046 43.6627 20.2113C43.5211 20.918 43.3794 21.4819 43.3794 22.0487H56.1283C55.845 19.9286 55.1367 18.5152 54.1452 17.5259ZM74.8267 0V14.6991H74.9684C75.9599 13.0031 77.2348 11.8724 78.793 11.1657C80.3512 10.459 81.7678 10.035 83.326 10.035C85.4508 10.035 87.1506 10.3177 88.4255 10.883C89.7004 11.4484 90.8336 12.2964 91.5419 13.2857C92.2502 14.2751 92.8168 15.5472 93.1001 16.9605C93.3834 18.3739 93.5251 19.93 93.5251 21.766V39.1506H85.7341V23.1794C85.7341 20.7766 85.3091 19.0806 84.6009 17.9499C83.8926 16.8192 82.6177 16.2538 80.7762 16.2538C78.6514 16.2538 77.0932 16.9605 76.2432 18.0926C75.2517 19.3633 74.8267 21.4833 74.8267 24.3101V39.1506H67.0357V0H74.8267ZM99.1913 14.9818C100.041 13.7098 101.033 12.8617 102.308 12.0123C103.583 11.3056 104.999 10.7417 106.557 10.4576C108.115 10.1749 109.672 10.0336 111.232 10.0336C112.648 10.0336 114.065 10.1749 115.625 10.3162C117.041 10.4576 118.458 10.8802 119.589 11.4469C120.864 12.0109 121.714 12.8603 122.566 13.8497C123.272 14.8405 123.697 16.2538 123.697 17.9499V32.7904C123.697 34.0624 123.839 35.3344 123.981 36.4666C124.124 37.5973 124.546 38.5866 124.972 39.1506H117.04C116.755 38.8679 116.613 38.3025 116.473 37.8799C116.331 37.4545 116.331 36.8906 116.331 36.4666C115.057 37.7372 113.64 38.5866 111.94 39.1506C110.24 39.7159 108.54 39.8572 106.841 39.8572C105.424 39.8572 104.291 39.7159 103.016 39.2933C101.883 39.0106 100.891 38.4439 99.8995 37.7372C99.0496 37.0305 98.3413 36.1825 97.7747 35.0532C97.3497 33.9211 97.0664 32.7904 97.0664 31.2356C97.0664 29.6795 97.3497 28.2661 97.9164 27.2782C98.483 26.2888 99.1913 25.4408 100.041 24.7341C100.891 24.1702 102.024 23.6034 103.158 23.3207C104.291 23.0395 105.424 22.7568 106.699 22.614L110.099 22.19C111.232 22.0487 112.223 21.9073 113.073 21.766C113.923 21.4833 114.632 21.2007 115.198 20.7766C115.765 20.3526 115.906 19.7873 115.906 18.9393C115.906 18.0912 115.765 17.3845 115.482 16.9605C115.198 16.5365 114.773 16.1125 114.348 15.8298C113.922 15.5472 113.357 15.4058 112.79 15.2659C112.223 15.1231 111.515 15.1231 110.807 15.1231C109.249 15.1231 108.115 15.4058 107.266 16.1125C106.416 16.8192 105.849 17.9499 105.707 19.3633H97.9164C97.9164 17.6672 98.483 16.1125 99.1913 14.9818ZM114.63 26.0061C114.207 26.1475 113.64 26.2888 113.072 26.4302C112.505 26.5729 111.939 26.5729 111.23 26.7128C110.665 26.8542 109.957 26.8542 109.389 26.9955L107.689 27.4195C107.122 27.5609 106.556 27.8435 106.273 28.1262C105.848 28.4089 105.564 28.8329 105.281 29.2569C104.857 29.8223 104.857 30.3876 104.857 31.0943C104.857 31.801 104.999 32.3663 105.282 32.7904C105.566 33.2144 105.849 33.6398 106.274 33.9211C106.699 34.2037 107.266 34.3465 107.832 34.4864C108.399 34.6263 108.964 34.6277 109.672 34.6277C111.232 34.6277 112.364 34.3465 113.214 33.9211C114.065 33.3571 114.63 32.7904 115.057 32.0837C115.481 31.377 115.765 30.6703 115.765 29.9636C115.906 29.2569 115.906 28.693 115.906 28.2675V25.2995C115.482 25.5821 115.057 25.8662 114.63 26.0061ZM135.456 10.7417V14.6991H135.598C136.588 13.0031 137.864 11.8724 139.421 11.1657C140.981 10.459 142.681 10.035 144.237 10.035C146.362 10.035 148.062 10.3177 149.337 10.883C150.753 11.4484 151.746 12.2964 152.455 13.2857C153.163 14.2751 153.728 15.5472 154.153 16.9605C154.436 18.3739 154.58 19.93 154.58 21.766V39.1506H146.789V23.1794C146.789 20.7766 146.362 19.0806 145.654 17.9499C144.946 16.8192 143.671 16.1125 141.688 16.1125C139.563 16.1125 138.003 16.9605 137.013 18.2326C136.021 19.5046 135.596 21.6247 135.596 24.4514V39.2919H127.805V10.7417H135.456ZM172 15.8298C170.727 15.8298 169.734 16.1125 168.885 16.6793C168.035 17.2432 167.327 17.9499 166.76 18.9407C166.194 19.7887 165.91 20.7781 165.626 21.9088C165.344 23.0409 165.344 24.0288 165.344 25.1609C165.344 26.1489 165.486 27.281 165.626 28.269C165.91 29.4011 166.192 30.2477 166.76 31.0957C167.327 31.9452 167.894 32.6518 168.744 33.2158C169.593 33.7811 170.584 34.0652 171.859 34.0652C173.701 34.0652 175.118 33.4999 176.25 32.5091C177.243 31.5211 177.951 30.1078 178.093 28.269H185.6C185.035 32.0851 183.619 34.9118 181.208 36.892C178.801 38.8693 175.685 39.8601 171.859 39.8601C169.734 39.8601 167.751 39.4361 166.051 38.7294C164.208 38.0227 162.791 37.0333 161.518 35.7613C160.244 34.4892 159.25 32.9345 158.542 31.2385C157.833 29.4011 157.551 27.5623 157.551 25.4422C157.551 23.1808 157.833 21.2021 158.542 19.3647C159.25 17.5273 160.101 15.8312 161.375 14.4179C162.65 13.0045 164.208 12.0151 165.909 11.1671C167.749 10.4604 169.732 10.0364 171.999 10.0364C173.7 10.0364 175.258 10.3191 176.815 10.7431C178.372 11.1671 179.79 11.8738 180.923 12.7204C182.198 13.5698 183.189 14.6991 183.898 16.1125C184.606 17.3845 185.032 19.0806 185.173 20.918H177.523C177.244 17.5259 175.401 15.8298 172 15.8298ZM41.6796 2.68542H57.5449V6.50154H41.6796V2.68542ZM197.358 32.3663C198.492 33.497 200.332 34.0624 202.457 34.0624C204.017 34.0624 205.433 33.6384 206.565 32.9317C207.7 32.0823 208.408 31.2356 208.69 30.3862H215.491C214.356 33.7783 212.658 36.1825 210.39 37.7358C208.122 39.1491 205.432 39.9986 202.174 39.9986C199.908 39.9986 197.924 39.5732 196.081 38.8665C194.338 38.2178 192.781 37.1503 191.55 35.7584C190.275 34.4864 189.283 32.9317 188.717 31.0929C188.009 29.2555 187.725 27.2782 187.725 25.0154C187.725 22.8953 188.009 20.918 188.717 19.0792C189.399 17.3066 190.408 15.6771 191.692 14.2751C192.966 13.0031 194.525 11.8724 196.224 11.1657C198.066 10.459 200.049 10.035 202.174 10.035C204.581 10.035 206.706 10.459 208.407 11.4484C210.247 12.4377 211.663 13.5684 212.798 15.2645C213.931 16.8192 214.781 18.6552 215.348 20.6353C215.913 22.6126 216.056 24.7327 215.913 26.9955H195.373C195.373 29.1156 196.225 31.2356 197.358 32.3663ZM206.424 17.5259C205.432 16.5365 203.872 15.9712 202.032 15.9712C200.757 15.9712 199.764 16.2524 198.915 16.6779C198.065 17.1019 197.356 17.6658 196.933 18.2326C196.509 18.7993 196.081 19.5046 195.941 20.2113C195.801 20.918 195.659 21.4819 195.659 22.0487H208.408C207.982 19.9286 207.274 18.5152 206.424 17.5259Z" fill="white"/>
</g>
<defs>
<clipPath id="clip0_10_495">
<rect width="216" height="40" fill="white"/>
</clipPath>
</defs>
</svg>
