<svg width="147" height="40" viewBox="0 0 147 40" fill="none" xmlns="http://www.w3.org/2000/svg">
<g clip-path="url(#clip0_10_450)">
<path d="M28.2803 17.0514H15.9415C15.6232 17.0514 15.365 17.3106 15.365 17.6301V23.6824C15.365 24.0017 15.6232 24.2618 15.9415 24.2618H20.7549V31.7813C20.7549 31.7813 19.6739 32.1509 16.6862 32.1509C13.1609 32.1509 8.2365 30.8586 8.2365 19.9941C8.2365 9.12731 13.3642 7.69755 18.1784 7.69755C22.3456 7.69755 24.141 8.43374 25.2833 8.78834C25.6421 8.89877 25.9742 8.54017 25.9742 8.22054L27.3506 2.3727C27.3506 2.22331 27.3002 2.04325 27.1302 1.92086C26.6662 1.58896 23.836 0 16.6862 0C8.44908 0 0 3.51595 0 20.4178C0 37.3202 9.67348 39.839 17.8253 39.839C24.5747 39.839 28.6694 36.945 28.6694 36.945C28.8382 36.8515 28.8563 36.615 28.8563 36.5065V17.6301C28.8563 17.3106 28.5985 17.0514 28.2803 17.0514Z" fill="white"/>
<path d="M91.8674 2.02514C91.8674 1.70305 91.613 1.44324 91.2946 1.44324H84.3474C84.0299 1.44324 83.7719 1.70305 83.7719 2.02514C83.7719 2.02667 83.7738 15.4952 83.7738 15.4952H72.9448V2.02514C72.9448 1.70305 72.6892 1.44324 72.3714 1.44324H65.4245C65.1083 1.44324 64.8505 1.70305 64.8505 2.02514V38.4984C64.8505 38.8201 65.1083 39.0822 65.4245 39.0822H72.3714C72.6892 39.0822 72.9448 38.8201 72.9448 38.4984V22.8976H83.7738C83.7738 22.8976 83.7548 38.4972 83.7548 38.4984C83.7548 38.8201 84.0126 39.0822 84.3303 39.0822H91.2941C91.6123 39.0822 91.8667 38.8201 91.8674 38.4984V2.02514Z" fill="white"/>
<path d="M41.3899 6.81136C41.3899 4.30155 39.3843 2.27332 36.91 2.27332C34.4381 2.27332 32.4308 4.30155 32.4308 6.81136C32.4308 9.31855 34.4381 11.3522 36.91 11.3522C39.3843 11.3522 41.3899 9.31855 41.3899 6.81136Z" fill="white"/>
<path d="M40.8931 30.8047C40.8931 29.8702 40.8931 13.9685 40.8931 13.9685C40.8931 13.6488 40.6358 13.3875 40.3183 13.3875H33.393C33.0752 13.3875 32.791 13.7162 32.791 14.0358C32.791 14.0358 32.791 34.2952 32.791 38.1571C32.791 38.866 33.2313 39.0766 33.8012 39.0766C33.8012 39.0766 36.7571 39.0766 40.0407 39.0766C40.7251 39.0766 40.8931 38.7396 40.8931 38.1458C40.8931 36.8528 40.8931 31.7877 40.8931 30.8047Z" fill="white"/>
<path d="M118.27 13.4423H111.376C111.06 13.4423 110.803 13.7037 110.803 14.0255V31.9095C110.803 31.9095 109.051 33.1951 106.565 33.1951C104.08 33.1951 103.42 32.0636 103.42 29.6216C103.42 27.1765 103.42 14.0255 103.42 14.0255C103.42 13.7037 103.163 13.4423 102.846 13.4423H95.8496C95.5339 13.4423 95.2751 13.7037 95.2751 14.0255C95.2751 14.0255 95.2751 23.5494 95.2751 30.8025C95.2751 38.056 99.3045 39.8304 104.848 39.8304C109.395 39.8304 113.061 37.31 113.061 37.31C113.061 37.31 113.236 38.638 113.315 38.7956C113.394 38.9527 113.6 39.1114 113.822 39.1114L118.273 39.0918C118.589 39.0918 118.848 38.8297 118.848 38.5095L118.846 14.0255C118.846 13.7037 118.588 13.4423 118.27 13.4423Z" fill="white"/>
<path d="M134.393 33.173C132.002 33.0999 130.38 32.0113 130.38 32.0113V20.4609C130.38 20.4609 131.981 19.4769 133.944 19.3011C136.426 19.0779 138.818 19.8303 138.818 25.772C138.818 32.0378 137.739 33.2741 134.393 33.173ZM137.113 12.6229C133.197 12.6229 130.534 14.3757 130.534 14.3757V2.02514C130.534 1.70305 130.277 1.44324 129.96 1.44324H122.993C122.677 1.44324 122.419 1.70305 122.419 2.02514V38.4984C122.419 38.8201 122.677 39.0822 122.994 39.0822C122.995 39.0822 127.827 39.0822 127.828 39.0822C128.046 39.0822 128.211 38.9696 128.332 38.7725C128.453 38.5764 128.626 37.0908 128.626 37.0908C128.626 37.0908 131.475 39.7995 136.868 39.7995C143.199 39.7995 146.83 36.5772 146.83 25.3347C146.83 14.0921 141.031 12.6229 137.113 12.6229Z" fill="white"/>
<path d="M60.8599 13.3842H55.6487C55.6487 13.3842 55.6408 6.47823 55.6408 6.47668C55.6408 6.21533 55.5066 6.08466 55.2055 6.08466H48.1037C47.8276 6.08466 47.6794 6.20645 47.6794 6.47271V13.6106C47.6794 13.6106 44.1205 14.4727 43.8799 14.5423C43.6402 14.612 43.4638 14.8337 43.4638 15.0983V19.5837C43.4638 19.9063 43.7206 20.1664 44.0381 20.1664H47.6794C47.6794 20.1664 47.6794 24.8579 47.6794 30.9573C47.6794 38.9723 53.283 39.7597 57.0644 39.7597C58.7919 39.7597 60.8587 39.2029 61.1999 39.0766C61.4064 39.0005 61.5262 38.7863 61.5262 38.5536L61.5321 33.6194C61.5321 33.2977 61.2611 33.0371 60.9561 33.0371C60.6525 33.0371 59.8755 33.161 59.0756 33.161C56.516 33.161 55.6487 31.9669 55.6487 30.4213C55.6487 28.8768 55.6484 20.1664 55.6484 20.1664H60.8599C61.1777 20.1664 61.4347 19.9063 61.4347 19.5837V13.9653C61.4347 13.6433 61.1777 13.3842 60.8599 13.3842Z" fill="white"/>
</g>
<defs>
<clipPath id="clip0_10_450">
<rect width="147" height="40" fill="white"/>
</clipPath>
</defs>
</svg>
