<svg width="164" height="40" viewBox="0 0 164 40" fill="none" xmlns="http://www.w3.org/2000/svg">
<g clip-path="url(#clip0_10_490)">
<path d="M161.265 34.541C160.549 34.5479 159.865 34.8377 159.362 35.3471C158.859 35.8565 158.579 36.5439 158.583 37.2591C158.586 37.9743 158.873 38.6591 159.38 39.1636C159.888 39.6681 160.575 39.9513 161.291 39.9513C162.007 39.9513 162.694 39.6681 163.202 39.1636C163.709 38.6591 163.996 37.9743 164 37.2591C164.003 36.5439 163.723 35.8565 163.22 35.3471C162.717 34.8377 162.033 34.5479 161.317 34.541H161.265ZM161.265 39.6416C160.795 39.6494 160.334 39.518 159.939 39.2638C159.544 39.0097 159.234 38.6444 159.047 38.214C158.86 37.7836 158.805 37.3075 158.889 36.8459C158.973 36.3843 159.192 35.9579 159.518 35.6207C159.845 35.2835 160.264 35.0505 160.723 34.9514C161.183 34.8522 161.661 34.8912 162.098 35.0635C162.535 35.2358 162.911 35.5336 163.178 35.9193C163.446 36.305 163.592 36.7612 163.6 37.2303V37.2701C163.613 37.8855 163.381 38.4809 162.955 38.9254C162.529 39.3699 161.943 39.6271 161.327 39.6404H161.266L161.265 39.6416ZM150.868 33.802H144.982V24.5965C144.982 22.4013 144.943 19.5755 141.921 19.5755C138.856 19.5755 138.387 21.9672 138.387 24.4366V33.8014H132.501V14.8711H138.152V17.4581H138.231C138.796 16.4925 139.613 15.6982 140.595 15.1597C141.577 14.6212 142.686 14.3587 143.805 14.4002C149.771 14.4002 150.87 18.319 150.87 23.4171L150.868 33.802ZM125.861 12.2834C125.185 12.2836 124.525 12.0836 123.963 11.7089C123.401 11.3342 122.963 10.8015 122.705 10.1782C122.446 9.55496 122.378 8.86909 122.51 8.20736C122.642 7.54563 122.967 6.93775 123.444 6.4606C123.922 5.98345 124.531 5.65846 125.193 5.52672C125.856 5.39497 126.542 5.46241 127.166 5.72048C127.791 5.97855 128.324 6.41568 128.699 6.97658C129.075 7.53748 129.275 8.19697 129.275 8.87164C129.275 9.3196 129.187 9.7632 129.016 10.1771C128.844 10.591 128.593 10.9671 128.275 11.2839C127.958 11.6007 127.582 11.852 127.168 12.0236C126.753 12.1951 126.309 12.2834 125.861 12.2834ZM128.803 33.802H122.912V14.8711H128.803V33.802ZM153.802 0.00227462H119.954C119.186 -0.00638433 118.446 0.289936 117.896 0.826122C117.346 1.36231 117.033 2.09449 117.023 2.86178V36.8078C117.032 37.5755 117.346 38.3082 117.896 38.8449C118.445 39.3817 119.186 39.6786 119.954 39.6704H153.802C154.572 39.68 155.315 39.384 155.867 38.8473C156.418 38.3105 156.734 37.577 156.745 36.8078V2.85933C156.734 2.09052 156.418 1.35751 155.866 0.821333C155.314 0.28516 154.572 -0.0103143 153.802 -0.000174638V0.00227462ZM101.004 19.4402C98.0613 19.4402 96.2957 21.4026 96.2957 24.2621C96.2957 27.1216 98.0607 29.0859 101.004 29.0859C103.947 29.0859 105.717 27.1265 105.717 24.2621C105.717 21.3977 103.951 19.4402 101.004 19.4402ZM111.135 33.791H105.717V31.2805H105.636C104.957 32.1936 104.075 32.9377 103.06 33.4547C102.045 33.9717 100.925 34.2477 99.7853 34.2612C94.1303 34.2612 90.4053 30.185 90.4053 24.4207C90.4053 19.1267 93.7018 14.2655 99.1207 14.2655C101.556 14.2655 103.832 14.9311 105.166 16.776H105.243V5.86395H111.135L111.135 33.791ZM82.8485 22.1276C82.8597 21.6507 82.774 21.1765 82.5963 20.7337C82.4187 20.2909 82.1529 19.8887 81.815 19.5515C81.4772 19.2143 81.0743 18.9491 80.6309 18.772C80.1874 18.5949 79.7125 18.5095 79.235 18.5211C78.2067 18.4572 77.1944 18.7994 76.4164 19.4741C75.6383 20.1487 75.1569 21.1017 75.0759 22.1276H82.8485ZM87.834 30.5163C86.856 31.7008 85.6265 32.6533 84.2345 33.3047C82.8424 33.9561 81.3228 34.2901 79.7856 34.2826C73.9 34.2826 69.188 30.3589 69.188 24.283C69.188 18.207 73.8994 14.2851 79.7856 14.2851C85.2867 14.2851 88.7365 18.2039 88.7365 24.283V26.126H75.0759C75.246 27.1713 75.7886 28.1199 76.6037 28.7972C77.4188 29.4745 78.4515 29.8347 79.5115 29.8115C80.3492 29.8064 81.1724 29.592 81.9059 29.188C82.6395 28.7839 83.2603 28.203 83.7117 27.4982L87.834 30.5163ZM29.3258 14.8662H34.9778V17.4532H35.0581C35.6226 16.4872 36.4392 15.6925 37.4208 15.1539C38.4023 14.6154 39.5118 14.3532 40.6309 14.3953C46.5992 14.3953 47.6978 18.3172 47.6978 23.4122V33.7934H41.8123V24.5897C41.8123 22.3927 41.7719 19.5688 38.7469 19.5688C35.6877 19.5688 35.2156 21.9611 35.2156 24.4299V33.791H29.3301L29.3258 14.8662ZM50.6823 5.86579H56.5678V22.5605L63.2381 14.8558H70.454L62.7292 23.6198L70.2915 33.8026H62.8941L56.6463 24.4452H56.569V33.8014H50.6835L50.6823 5.86579ZM20.1769 14.8644H26.0624V33.7946H20.1769V14.8644ZM23.1197 5.45309C23.7949 5.45321 24.455 5.65331 25.0163 6.02807C25.5777 6.40284 26.0152 6.93545 26.2736 7.55855C26.5319 8.18165 26.5994 8.86726 26.4676 9.52869C26.3358 10.1901 26.0106 10.7977 25.5331 11.2745C25.0555 11.7513 24.4472 12.076 23.7849 12.2076C23.1226 12.3391 22.4362 12.2715 21.8123 12.0134C21.1885 11.7553 20.6553 11.3182 20.2802 10.7575C19.9051 10.1967 19.7048 9.53747 19.7048 8.86307C19.7048 8.41521 19.7932 7.97174 19.9648 7.55798C20.1364 7.14423 20.388 6.76829 20.7051 6.45163C21.0222 6.13498 21.3986 5.88382 21.8129 5.71248C22.2272 5.54115 22.6713 5.45301 23.1197 5.45309ZM0 5.87008H6.12646V28.1583H17.4683V33.805H0V5.87008ZM161.695 37.4177C161.796 37.4187 161.896 37.399 161.988 37.3598C162.081 37.3207 162.165 37.2629 162.235 37.19C162.304 37.1172 162.358 37.0308 162.393 36.9363C162.428 36.8418 162.442 36.7412 162.437 36.6407C162.437 36.0896 162.104 35.8263 161.421 35.8263H160.317V38.7115H160.732V37.4538H161.242L161.254 37.4691L162.046 38.7115H162.489L161.638 37.4257L161.695 37.4177ZM161.215 37.1287H160.734V36.1533H161.344C161.659 36.1533 162.018 36.2047 162.018 36.6168C162.018 37.0907 161.654 37.1287 161.212 37.1287" fill="white"/>
</g>
<defs>
<clipPath id="clip0_10_490">
<rect width="164" height="40" fill="white"/>
</clipPath>
</defs>
</svg>
