<svg width="174" height="40" viewBox="0 0 174 40" fill="none" xmlns="http://www.w3.org/2000/svg">
<g clip-path="url(#clip0_10_463)">
<path d="M22.7568 14.7429H33.2044V33.2952H0V14.7429H10.4476V24H22.7188V14.7429H22.7568ZM58.0886 24.2286C58.0886 27.3905 56.0371 29.219 53.1878 29.219C50.4144 29.219 48.3249 27.3524 48.3249 24.2286V9.29524H43.69V24.1905C43.69 30.0571 47.869 33.7905 53.2258 33.7905C58.6205 33.7905 62.7616 30.0571 62.7616 24.1905V9.29524H58.1266V24.2286H58.0886ZM74.6908 16.1905C72.9052 16.1905 70.9297 16.9524 69.9039 18.7048V16.6476H65.5729V33.2952H70.0559V23.6952C70.0559 21.7524 71.1956 20.2286 73.1712 20.2286C75.3367 20.2286 76.2485 21.6762 76.2485 23.5429V33.2571H80.7314V22.781C80.6935 19.1238 78.7939 16.1905 74.6908 16.1905ZM91.141 23.2C91.141 23.2 89.6214 22.8952 88.6716 22.7048C87.7218 22.5143 87.152 22.019 87.152 21.219C87.152 20.2667 87.9878 19.581 89.1655 19.581C90.8371 19.581 91.483 20.419 91.6349 21.4476H95.51C95.4721 19.1619 93.6865 16.1905 89.2415 16.1905C85.6703 16.1905 83.0489 18.6667 83.0489 21.6381C83.0489 23.9619 84.4926 25.9048 87.6838 26.5905L89.9633 27.0857C91.255 27.3524 91.7489 27.9619 91.7489 28.7238C91.7489 29.6 90.9511 30.3619 89.4694 30.3619C87.6838 30.3619 86.6961 29.3333 86.4681 28.1524H82.479C82.707 30.6286 84.4926 33.7905 89.5074 33.7905C93.8384 33.7905 96.0419 31.0095 96.0419 28.3048C96.0799 25.8667 94.4083 23.8857 91.141 23.2ZM115.152 24.9143C115.152 29.9429 111.998 33.6762 107.325 33.6762C105.046 33.6762 103.336 32.7619 102.538 31.6571V39.6952H98.0555V16.6476H102.386V18.7048C103.146 17.4095 104.97 16.2667 107.477 16.2667C112.34 16.2667 115.152 20 115.152 24.9143ZM110.745 24.9524C110.745 22.019 108.921 20.3048 106.641 20.3048C104.362 20.3048 102.5 22.019 102.5 24.9524C102.5 27.8857 104.362 29.6381 106.641 29.6381C108.921 29.6381 110.745 27.9238 110.745 24.9524ZM136.579 16.6476H140.91V33.2952H136.427V31.2381C135.667 32.5714 133.919 33.6762 131.64 33.6762C126.967 33.6762 123.814 29.9429 123.814 24.9143C123.814 19.9619 126.625 16.2667 131.45 16.2667C133.957 16.2667 135.743 17.4095 136.541 18.7048V16.6476H136.579ZM136.503 24.9524C136.503 22.019 134.641 20.3048 132.362 20.3048C130.082 20.3048 128.259 22.019 128.259 24.9524C128.259 27.9238 130.082 29.6381 132.362 29.6381C134.641 29.6381 136.503 27.8857 136.503 24.9524ZM117.241 33.2571H121.724V9.29524H117.241V33.2571ZM167.541 16.1905C165.946 16.1905 164.122 16.7238 163.059 18.019V9.29524H158.576V33.2571H163.059V23.5048C163.173 21.6762 164.274 20.2667 166.174 20.2667C168.339 20.2667 169.251 21.7143 169.251 23.581V33.2952H173.734V22.819C173.696 19.1238 171.759 16.1905 167.541 16.1905ZM151.585 23.2C151.585 23.2 150.066 22.8952 149.116 22.7048C148.166 22.5143 147.596 22.019 147.596 21.219C147.596 20.2667 148.432 19.581 149.61 19.581C151.281 19.581 151.927 20.419 152.079 21.4476H155.954C155.916 19.1619 154.131 16.1905 149.686 16.1905C146.114 16.1905 143.493 18.6667 143.493 21.6381C143.493 23.9619 144.937 25.9048 148.128 26.5905L150.407 27.0857C151.699 27.3524 152.193 27.9619 152.193 28.7238C152.193 29.6 151.395 30.3619 149.914 30.3619C148.128 30.3619 147.14 29.3333 146.912 28.1524H142.923C143.151 30.6286 144.937 33.7905 149.952 33.7905C154.283 33.7905 156.486 31.0095 156.486 28.3048C156.524 25.8667 154.852 23.8857 151.585 23.2ZM22.7568 0H10.4476V9.29524H22.7188V0H22.7568Z" fill="white"/>
</g>
<defs>
<clipPath id="clip0_10_463">
<rect width="174" height="40" fill="white"/>
</clipPath>
</defs>
</svg>
