<svg width="50" height="50" viewBox="0 0 50 50" fill="none" xmlns="http://www.w3.org/2000/svg">
<g clip-path="url(#clip0_29_189)">
<path d="M19.9512 0.488286C10.2442 2.38282 2.4219 10.1856 0.507841 19.8633C-3.10544 38.125 13.3692 51.7383 25.7813 49.8145C29.8047 49.1895 31.7774 44.4824 29.9317 40.8594C27.6758 36.4258 30.8985 31.25 35.8789 31.25H43.6621C47.1582 31.25 49.9903 28.3594 50 24.8731C49.9512 9.48243 35.9473 -2.62695 19.9512 0.488286ZM9.37503 31.25C7.64651 31.25 6.25003 29.8535 6.25003 28.125C6.25003 26.3965 7.64651 25 9.37503 25C11.1035 25 12.5 26.3965 12.5 28.125C12.5 29.8535 11.1035 31.25 9.37503 31.25ZM12.5 18.75C10.7715 18.75 9.37503 17.3535 9.37503 15.625C9.37503 13.8965 10.7715 12.5 12.5 12.5C14.2285 12.5 15.625 13.8965 15.625 15.625C15.625 17.3535 14.2285 18.75 12.5 18.75ZM25 12.5C23.2715 12.5 21.875 11.1035 21.875 9.375C21.875 7.64649 23.2715 6.25 25 6.25C26.7285 6.25 28.125 7.64649 28.125 9.375C28.125 11.1035 26.7285 12.5 25 12.5ZM37.5 18.75C35.7715 18.75 34.375 17.3535 34.375 15.625C34.375 13.8965 35.7715 12.5 37.5 12.5C39.2285 12.5 40.625 13.8965 40.625 15.625C40.625 17.3535 39.2285 18.75 37.5 18.75Z" fill="white"/>
</g>
<defs>
<clipPath id="clip0_29_189">
<rect width="50" height="50" fill="white"/>
</clipPath>
</defs>
</svg>
