<svg width="56" height="56" viewBox="0 0 56 56" fill="none" xmlns="http://www.w3.org/2000/svg">
<path d="M3 28H16.8889M3 28C3 41.8071 14.1929 53 28 53M3 28C3 14.1929 14.1929 3 28 3M16.8889 28H39.1111M16.8889 28C16.8889 41.8071 21.8635 53 28 53M16.8889 28C16.8889 14.1929 21.8635 3 28 3M39.1111 28H53M39.1111 28C39.1111 14.1929 34.1365 3 28 3M39.1111 28C39.1111 41.8071 34.1365 53 28 53M53 28C53 14.1929 41.8071 3 28 3M53 28C53 41.8071 41.8071 53 28 53" stroke="white" stroke-width="5" stroke-linecap="round" stroke-linejoin="round"/>
</svg>
